<?xml version="1.0" standalone="no"?>
<!DOCTYPE svg PUBLIC "-//W3C//DTD SVG 20010904//EN"
 "http://www.w3.org/TR/2001/REC-SVG-20010904/DTD/svg10.dtd">
<svg version="1.0" xmlns="http://www.w3.org/2000/svg"
 width="900.000000pt" height="900.000000pt" viewBox="0 0 900.000000 900.000000"
 preserveAspectRatio="xMidYMid meet">

<g transform="translate(0.000000,900.000000) scale(0.100000,-0.100000)"
fill="#000000" stroke="none">
<path d="M4639 8965 c-82 -14 -194 -44 -187 -50 2 -2 46 5 98 16 196 42 387
36 490 -15 25 -13 58 -26 74 -30 65 -16 174 -115 217 -198 32 -60 31 -147 0
-210 -30 -58 -81 -110 -89 -89 -16 45 -135 115 -241 142 -71 18 -105 21 -220
17 -99 -4 -151 -10 -190 -24 -84 -29 -75 -46 11 -22 57 16 104 21 213 22 152
1 211 -11 298 -59 43 -25 107 -86 107 -104 0 -4 -19 -14 -42 -21 l-43 -14 45
-7 c68 -11 282 -19 240 -9 -38 9 -105 19 -131 20 -32 0 -27 28 13 76 114 137
104 269 -30 401 -68 67 -190 132 -293 157 -78 19 -231 20 -340 1z"/>
<path d="M4890 8901 c-8 -6 -17 -8 -20 -6 -12 7 -148 -69 -209 -117 -63 -50
-137 -136 -168 -197 -10 -20 -25 -47 -33 -61 -19 -30 -41 -93 -35 -99 7 -6 6
-7 61 97 26 51 72 122 100 156 56 67 157 156 179 156 7 0 18 6 24 13 6 8 35
22 66 32 30 11 55 23 55 27 0 10 -2 10 -20 -1z"/>
<path d="M4370 8884 l-25 -15 25 7 c14 3 29 10 35 15 15 14 -7 10 -35 -7z"/>
<path d="M4410 8389 c0 -5 5 -7 10 -4 6 3 10 8 10 11 0 2 -4 4 -10 4 -5 0 -10
-5 -10 -11z"/>
<path d="M5108 8333 c7 -3 16 -2 19 1 4 3 -2 6 -13 5 -11 0 -14 -3 -6 -6z"/>
<path d="M1845 8123 c95 -7 215 -7 215 0 0 4 -57 6 -127 5 -71 -1 -110 -3 -88
-5z"/>
<path d="M1735 8103 c-33 -17 -45 -31 -45 -51 0 -7 12 -1 28 13 16 14 37 32
48 40 25 19 6 18 -31 -2z"/>
<path d="M2128 8113 c7 -3 16 -2 19 1 4 3 -2 6 -13 5 -11 0 -14 -3 -6 -6z"/>
<path d="M2178 8113 c7 -3 16 -2 19 1 4 3 -2 6 -13 5 -11 0 -14 -3 -6 -6z"/>
<path d="M2268 8103 c12 -2 32 -2 45 0 12 2 2 4 -23 4 -25 0 -35 -2 -22 -4z"/>
<path d="M4375 8101 c-10 -18 24 -181 54 -251 28 -67 107 -196 135 -219 8 -7
23 -11 32 -9 22 4 31 28 11 28 -8 0 -20 7 -27 15 -11 14 -7 23 31 62 24 25 75
67 113 94 43 31 62 49 50 49 -34 0 -120 -57 -173 -116 -42 -45 -55 -54 -62
-43 -83 124 -134 241 -144 335 -8 65 -10 70 -20 55z"/>
<path d="M2450 8079 c25 -4 61 -7 80 -7 29 1 26 2 -15 8 -69 11 -126 10 -65
-1z"/>
<path d="M3964 8024 c13 -154 174 -382 299 -423 21 -7 41 -11 43 -8 3 3 -11
10 -31 17 -20 7 -65 39 -100 71 -87 81 -157 203 -201 349 l-14 45 4 -51z"/>
<path d="M2620 8056 c0 -9 40 -13 46 -5 3 5 -6 9 -20 9 -14 0 -26 -2 -26 -4z"/>
<path d="M2705 8042 c29 -13 114 -24 95 -13 -8 5 -37 12 -65 15 -32 4 -43 3
-30 -2z"/>
<path d="M1695 8001 c5 -10 2 -11 -12 -7 -34 11 -62 -23 -75 -89 -13 -72 -18
-786 -7 -985 10 -175 28 -359 38 -396 l8 -29 13 25 c18 33 16 236 -3 258 -8
11 -13 78 -15 233 -3 202 -2 227 23 351 14 73 32 158 40 188 l15 55 -5 -50
c-2 -27 -8 -69 -13 -92 -7 -31 -6 -45 4 -55 10 -10 11 -35 6 -103 -7 -89 0
-206 20 -338 5 -38 12 -66 14 -64 2 2 5 67 7 145 2 78 5 144 8 147 3 3 12 -21
19 -52 9 -43 15 -53 20 -38 14 41 20 -46 10 -167 -6 -66 -7 -125 -3 -131 4 -7
6 -23 4 -37 -2 -14 1 -21 5 -17 5 5 9 16 9 25 0 9 6 17 14 17 8 0 15 10 16 22
1 13 5 26 10 30 4 5 5 -1 2 -12 -7 -18 -6 -19 6 -3 8 10 16 15 19 13 3 -3 39
31 79 77 98 109 122 133 199 199 96 82 181 143 220 159 51 20 61 27 184 146
62 60 160 152 218 204 59 52 109 101 112 108 7 16 1 15 -16 -1 -7 -7 -36 -26
-64 -41 -50 -27 -50 -27 -100 -10 -27 9 -54 21 -61 26 -7 5 -31 16 -55 23 -24
8 -104 39 -178 71 -74 31 -146 59 -160 62 -14 2 -30 9 -37 14 -18 14 -80 29
-136 33 -27 2 -55 9 -62 15 -9 7 -29 9 -52 6 -21 -3 -45 -2 -53 4 -13 9 -13
10 0 10 8 1 5 5 -8 11 -14 5 -30 5 -40 0 -9 -5 -37 -7 -60 -5 -29 3 -53 -2
-73 -13 -35 -21 -52 -8 -21 17 25 21 29 40 8 40 -8 0 -22 3 -32 7 -12 5 -15 3
-9 -6z m4 -43 c-8 -15 -8 -23 2 -28 10 -7 9 -14 -5 -34 -9 -15 -20 -25 -24
-22 -4 3 -9 -5 -9 -17 -2 -17 0 -18 7 -7 5 8 12 11 16 7 9 -9 -21 -269 -46
-392 l-18 -90 4 135 c11 415 20 484 63 473 17 -4 19 -9 10 -25z m27 -524 c-4
-9 -9 -15 -11 -12 -3 3 -3 13 1 22 4 9 9 15 11 12 3 -3 3 -13 -1 -22z m82
-295 c-3 -8 -7 -3 -11 10 -4 17 -3 21 5 13 5 -5 8 -16 6 -23z"/>
<path d="M1661 7784 c0 -11 3 -14 6 -6 3 7 2 16 -1 19 -3 4 -6 -2 -5 -13z"/>
<path d="M3193 7963 c-23 -3 -30 -8 -26 -19 7 -19 26 -18 54 6 13 10 20 19 14
18 -5 -1 -24 -3 -42 -5z"/>
<path d="M6570 7946 c0 -2 7 -7 16 -10 8 -3 12 -2 9 4 -6 10 -25 14 -25 6z"/>
<path d="M5286 7921 c-5 -7 5 -11 31 -11 95 0 272 -41 441 -102 227 -82 486
-250 665 -433 52 -53 195 -239 242 -315 16 -25 66 -102 112 -172 45 -71 83
-130 83 -132 0 -1 23 -43 51 -92 55 -95 133 -261 144 -307 4 -15 16 -33 26
-41 21 -14 15 -26 -12 -26 -28 0 -137 -96 -160 -142 -19 -38 -21 -53 -16 -158
3 -63 11 -130 17 -149 11 -29 10 -38 -4 -62 -47 -79 6 -240 93 -286 39 -20 58
-23 163 -23 66 0 128 5 139 10 25 14 26 -4 0 -22 -61 -43 -231 -441 -231 -542
0 -46 12 -39 30 17 14 44 17 44 25 -3 8 -48 15 -53 113 -95 79 -34 98 -38 212
-45 108 -6 131 -5 166 10 23 10 45 23 48 29 14 23 24 10 30 -41 4 -29 15 -75
25 -102 16 -47 16 -52 -1 -100 -9 -28 -17 -59 -18 -68 0 -31 -16 -20 -64 46
-56 76 -76 96 -76 74 0 -9 24 -50 53 -93 78 -116 106 -159 111 -170 7 -20 46
-244 65 -381 18 -122 20 -198 21 -585 1 -411 -1 -452 -20 -549 -53 -267 -157
-560 -258 -728 -60 -100 -39 -116 24 -19 15 23 59 69 99 102 40 33 96 92 124
130 75 101 156 278 179 393 9 49 9 189 -1 225 -13 48 -28 31 -21 -26 13 -109
-29 -305 -91 -427 -46 -90 -110 -182 -169 -240 -61 -59 -66 -59 -37 -2 51 101
138 358 173 514 20 86 22 129 25 583 5 506 -3 643 -42 820 -8 33 -16 71 -19
85 -2 14 -7 39 -11 55 -6 25 14 9 125 -100 202 -198 116 -83 -137 184 -61 63
-53 82 8 22 28 -28 59 -53 69 -56 10 -3 30 -25 43 -48 40 -68 193 -206 175
-158 -1 5 -42 50 -90 101 -49 50 -88 94 -88 96 0 2 11 4 25 4 14 0 44 11 66
26 47 29 165 68 185 60 8 -3 14 -12 14 -20 0 -7 7 -16 15 -20 8 -3 31 -31 51
-63 93 -149 182 -267 335 -443 145 -167 322 -423 401 -580 23 -45 38 -66 38
-53 0 20 -21 65 -93 193 -43 78 -171 259 -280 395 -27 34 -54 81 -62 110 -9
27 -38 107 -67 178 -28 70 -48 130 -45 134 4 3 19 0 34 -8 16 -7 31 -15 36
-17 4 -2 7 1 7 7 0 6 -5 11 -11 11 -6 0 -25 12 -42 26 l-31 26 60 -9 c86 -12
280 -8 297 6 12 9 12 20 2 65 -16 70 -18 72 -63 87 -54 17 -62 27 -62 72 0 37
6 46 61 98 37 33 59 61 55 68 -4 6 -23 18 -41 25 -22 10 -40 28 -52 52 -23 46
-35 45 -39 -5 -4 -44 9 -60 65 -77 l36 -10 -40 -19 c-22 -11 -45 -26 -52 -35
-7 -8 -13 -10 -13 -4 0 5 9 20 21 32 l20 23 -28 -7 c-46 -11 -187 -81 -236
-119 -66 -51 -87 -47 -47 9 18 24 30 50 28 58 -6 15 41 70 114 134 27 24 46
44 43 44 -26 0 -79 -37 -123 -85 -29 -32 -54 -56 -56 -54 -2 2 -18 31 -36 64
-18 33 -44 77 -57 97 -12 21 -23 40 -23 42 0 3 -30 54 -66 113 -37 59 -88 151
-114 203 -49 98 -58 118 -109 234 -36 80 -52 84 -20 5 11 -30 27 -70 34 -89
17 -46 100 -205 213 -410 20 -36 64 -119 98 -184 l62 -120 -30 -37 -31 -38
-39 20 c-23 12 -47 17 -59 14 -18 -6 -20 -3 -14 27 9 46 -12 166 -35 203 -28
45 -71 66 -145 70 -36 2 -65 5 -66 7 0 2 3 10 6 20 6 16 -8 46 -66 143 -16 28
-32 57 -36 65 -3 8 -15 25 -27 38 l-21 23 28 -10 c87 -33 112 5 104 155 -4 56
-9 121 -13 143 -4 25 -2 46 4 54 17 20 -3 81 -37 114 l-28 28 94 145 c96 149
259 466 333 649 23 57 76 205 118 330 69 207 76 233 76 306 0 138 -28 194
-111 214 -25 7 -57 20 -71 31 -25 18 -309 116 -512 176 -47 14 -94 29 -105 33
-65 28 -347 95 -590 141 -27 5 -84 12 -125 14 -72 5 -76 6 -110 44 -38 43 -90
82 -132 100 -48 20 -30 -1 52 -62 44 -33 80 -63 80 -68 0 -4 -64 -8 -142 -7
-79 0 -160 -4 -180 -9 -34 -9 -42 -7 -74 19 -20 16 -41 29 -47 29 -5 0 2 -9
15 -20 26 -20 188 -252 267 -382 24 -40 73 -127 108 -193 36 -66 98 -172 139
-236 64 -99 194 -360 219 -439 4 -12 37 -77 73 -144 101 -188 115 -216 110
-221 -3 -3 -22 20 -42 51 -54 81 -83 111 -127 128 -50 20 -59 20 -60 -1 0 -14
-2 -15 -6 -3 -3 8 -11 22 -17 30 -7 8 -23 47 -36 85 -45 131 -158 338 -289
525 -207 298 -247 348 -365 464 -302 294 -690 486 -1052 521 -49 5 -74 4 -78
-4z m1758 -241 c110 -15 391 -76 413 -90 13 -8 -34 -9 -182 -5 -255 7 -437
-15 -547 -68 l-68 -33 -45 58 c-42 53 -75 113 -75 137 0 5 17 11 38 13 73 7
385 -2 466 -12z m78 -1587 c23 -21 23 -53 -1 -128 -37 -117 -60 -170 -72 -170
-20 0 -51 123 -45 181 6 49 26 111 42 127 13 13 57 8 76 -10z m435 -133 c33
-65 40 -168 18 -254 -19 -74 -62 -156 -82 -156 -21 0 -16 81 7 115 35 51 50
95 50 146 0 57 -26 129 -46 129 -12 0 -13 -4 -1 -27 24 -47 27 -112 9 -157
l-17 -41 -6 95 c-3 52 -13 114 -21 138 -14 39 -14 43 1 52 34 21 65 7 88 -40z
m-554 -203 c14 -29 50 -76 82 -107 49 -46 54 -55 39 -61 -15 -5 -16 -8 -4 -11
96 -29 164 -54 177 -63 41 -31 -247 -24 -296 6 -21 14 -50 58 -68 104 -17 44
-15 114 4 162 21 49 30 45 66 -30z m874 -139 c22 -20 23 -29 23 -140 l0 -119
-24 28 -24 28 -20 -25 -20 -24 -46 24 c-30 17 -49 35 -56 54 -13 38 -13 86 0
86 6 0 14 8 18 18 4 9 23 34 42 54 41 43 73 48 107 16z m-440 -50 c33 -43 12
-81 -41 -76 -41 4 -45 30 -10 63 31 28 38 30 51 13z m-47 -388 c-7 -72 -15
-128 -18 -126 -3 3 -19 -22 -36 -55 -30 -60 -31 -60 -66 -54 -19 4 -45 13 -57
20 -18 12 -20 20 -13 47 27 119 61 190 117 247 32 33 74 61 82 54 2 -1 -2 -62
-9 -133z m609 -571 c37 -8 58 -20 80 -44 21 -24 32 -30 40 -22 15 15 20 7 14
-24 -4 -21 -14 -28 -61 -42 -31 -9 -66 -15 -77 -12 -11 2 -32 6 -47 10 -16 3
-28 12 -28 20 0 8 -4 15 -8 15 -4 0 -8 10 -9 22 -1 12 -11 34 -22 49 -11 15
-17 29 -14 33 10 9 77 7 132 -5z m-199 -70 c12 -45 34 -65 104 -93 55 -22 55
-23 30 -34 -14 -7 -38 -12 -55 -12 -34 0 -100 38 -123 72 -19 26 -21 90 -5
120 11 21 12 21 26 3 7 -11 18 -36 23 -56z m443 3 c19 -21 13 -33 -11 -25 -15
4 -15 3 -2 -6 13 -9 12 -12 -5 -25 -27 -21 -49 -16 -53 11 -3 22 24 61 44 62
6 1 18 -7 27 -17z m62 -119 c32 -36 19 -40 -40 -12 -33 16 -43 24 -33 30 24
15 47 9 73 -18z m95 -99 c5 -5 27 -56 49 -114 21 -58 49 -127 60 -153 12 -27
21 -53 21 -58 0 -21 -115 120 -190 233 -44 66 -80 123 -80 127 0 9 127 -22
140 -35z"/>
<path d="M5070 7890 c-44 -11 -130 -48 -111 -49 16 -1 181 49 181 55 0 6 -29
3 -70 -6z"/>
<path d="M3673 7863 c9 -2 23 -2 30 0 6 3 -1 5 -18 5 -16 0 -22 -2 -12 -5z"/>
<path d="M4788 7752 c-16 -10 -28 -20 -28 -24 0 -4 16 2 35 13 34 20 43 30 28
28 -5 0 -20 -8 -35 -17z"/>
<path d="M4670 7693 c-57 -33 -53 -30 -45 -43 7 -11 96 32 116 57 20 23 -22
15 -71 -14z"/>
<path d="M4721 7590 c-140 -16 -102 -28 106 -33 183 -4 204 -6 278 -32 44 -15
96 -35 117 -46 20 -10 39 -15 43 -10 11 18 -89 71 -204 108 -56 17 -238 25
-340 13z"/>
<path d="M4476 7562 c-28 -82 77 -302 225 -472 213 -244 556 -529 781 -647 37
-19 68 -39 68 -43 0 -18 -155 -35 -320 -35 -224 0 -315 21 -493 111 -38 20
-73 34 -78 32 -10 -3 158 -164 238 -227 85 -67 210 -141 297 -176 60 -24 37
-28 -50 -9 -44 9 -95 20 -114 24 -191 39 -476 214 -658 403 -234 245 -349 496
-340 743 5 131 -12 121 -19 -12 -14 -255 127 -545 389 -801 110 -107 236 -196
371 -263 115 -57 265 -109 314 -110 42 0 51 -22 57 -147 3 -65 13 -187 22
-271 8 -84 12 -157 9 -162 -3 -5 -1 -17 4 -27 6 -10 22 -67 36 -128 54 -232
142 -465 189 -504 9 -8 16 -17 16 -22 0 -54 -202 146 -313 310 -27 41 -72 120
-100 175 -77 155 -177 443 -177 511 0 14 -4 25 -10 25 -17 0 -12 -131 5 -144
8 -6 32 -70 54 -142 63 -206 146 -371 264 -523 54 -69 164 -182 203 -207 35
-24 30 -31 -26 -37 -61 -7 -161 -42 -212 -74 -21 -13 -38 -25 -38 -28 0 -5 71
19 99 35 27 14 169 50 200 50 25 0 120 -40 121 -51 0 -4 -43 -14 -95 -24 -57
-10 -120 -29 -155 -47 -89 -44 -165 -141 -129 -163 5 -4 7 -11 4 -16 -13 -20
30 -7 132 42 91 44 119 52 183 56 94 7 208 -15 288 -56 92 -46 216 -144 262
-207 56 -75 115 -204 131 -282 22 -117 -4 -261 -71 -393 -33 -66 -34 -69 -20
-69 5 0 22 21 37 48 37 64 47 74 62 59 6 -6 11 -18 11 -27 0 -10 11 -4 31 19
23 25 37 32 55 28 28 -5 32 8 7 21 -14 9 -15 15 -3 57 7 26 19 49 25 51 8 4
11 20 7 49 -2 24 1 58 7 76 6 18 7 37 2 43 -4 6 -11 35 -15 64 -4 29 -9 59
-12 67 -4 10 4 19 22 27 l29 12 -27 4 c-17 2 -35 16 -52 42 -14 22 -26 43 -26
48 0 4 -20 41 -45 81 -25 41 -44 76 -42 78 2 2 16 -1 31 -7 41 -15 51 -12 31
10 -12 13 -31 20 -53 20 -29 0 -43 8 -79 46 -24 26 -43 48 -43 50 0 2 18 8 40
14 58 16 41 28 -26 19 -51 -7 -60 -5 -96 19 l-40 26 26 9 c39 13 32 30 -9 23
-24 -5 -56 1 -109 18 -42 14 -94 29 -116 32 -22 4 -43 10 -45 15 -3 4 22 16
55 26 39 11 55 20 46 25 -7 4 -68 17 -135 27 -67 11 -125 22 -129 25 -5 3 -27
42 -49 88 -66 133 -117 290 -157 488 -25 117 -26 114 41 106 88 -10 100 -15
113 -47 7 -15 41 -72 77 -126 35 -54 85 -141 110 -193 63 -132 84 -172 105
-194 10 -11 18 -23 18 -27 0 -4 12 -15 28 -25 25 -16 24 -14 -9 27 -34 42
-109 178 -109 198 0 5 22 -14 49 -42 27 -29 62 -66 77 -82 49 -51 146 -130
206 -166 31 -20 73 -57 93 -85 49 -65 63 -78 37 -33 -12 20 -22 40 -22 44 0 8
33 3 64 -10 39 -17 5 15 -42 39 -44 22 -51 32 -103 137 -57 114 -92 201 -188
463 -57 155 -54 146 -42 146 5 0 13 -10 17 -22 4 -13 9 -25 13 -28 3 -3 34
-62 69 -131 71 -140 135 -247 264 -438 84 -124 175 -273 252 -413 21 -37 42
-70 47 -74 45 -27 -78 197 -245 450 -215 325 -234 355 -311 501 -37 72 -82
157 -100 190 -17 33 -46 96 -64 140 -18 44 -36 82 -38 85 -10 9 8 -74 29 -135
20 -59 30 -92 62 -207 31 -113 149 -410 213 -537 18 -36 31 -67 28 -69 -2 -2
-19 6 -37 19 -130 89 -322 290 -374 391 -39 77 -75 181 -66 190 6 6 38 -3 78
-22 71 -32 90 -35 71 -10 -12 15 -55 38 -114 60 -18 7 -38 18 -44 26 -9 11 -7
14 12 15 22 0 21 2 -9 17 -24 12 -35 26 -43 56 -5 23 -16 59 -24 81 -11 32
-14 35 -14 15 -1 -14 3 -41 8 -60 5 -19 11 -54 14 -76 4 -37 3 -41 -15 -36
-11 2 -17 10 -14 18 3 7 -4 16 -15 19 -10 4 -27 21 -36 38 -23 44 -89 209
-115 285 -11 34 -25 62 -30 62 -5 0 -6 -4 -3 -10 3 -5 14 -40 24 -77 10 -37
39 -120 65 -185 25 -64 46 -120 46 -125 0 -4 -29 -6 -65 -5 -75 4 -69 -5 -86
137 -17 148 -23 315 -11 315 6 0 13 -6 15 -12 12 -30 5 30 -7 65 -17 47 -8 53
62 43 93 -14 205 -18 198 -8 -3 5 -25 12 -48 15 -58 8 -182 60 -300 126 -93
52 -331 221 -311 221 5 0 36 -9 69 -21 116 -40 210 -53 384 -52 91 1 183 6
205 11 22 6 65 17 95 25 51 14 58 14 100 -3 25 -10 52 -18 60 -18 8 0 46 -3
84 -7 50 -6 67 -5 62 4 -4 6 -19 11 -33 11 -41 0 -253 70 -318 105 -229 124
-606 438 -778 649 -88 107 -151 198 -178 256 -9 19 -22 47 -29 62 -7 15 -16
56 -19 90 -5 50 -8 58 -15 40z m974 -2112 c5 0 14 -19 21 -42 6 -24 18 -56 27
-73 27 -52 -13 -11 -53 55 -39 64 -42 75 -19 66 9 -3 20 -6 24 -6z m170 -698
c25 -9 25 -10 -14 -26 -21 -9 -45 -16 -54 -16 -19 0 -82 41 -82 54 0 11 114 1
150 -12z m-473 -234 c-3 -8 -6 -5 -6 6 -1 11 2 17 5 13 3 -3 4 -12 1 -19z"/>
<path d="M3975 7559 c-55 -7 -162 -45 -153 -54 2 -2 30 3 61 11 32 8 96 16
142 17 55 1 85 6 85 13 0 10 -50 26 -69 23 -3 -1 -33 -5 -66 -10z"/>
<path d="M5315 7403 c11 -10 43 -37 70 -58 169 -134 296 -282 435 -510 55 -89
199 -379 235 -470 25 -65 55 -118 40 -70 -7 20 -11 31 -39 95 -8 19 -29 69
-46 110 -65 156 -157 319 -290 514 -91 134 -333 373 -405 400 l-20 7 20 -18z"/>
<path d="M3625 7390 c-11 -5 -36 -23 -55 -40 -27 -24 -29 -28 -10 -19 32 16
106 69 94 68 -5 0 -18 -4 -29 -9z"/>
<path d="M3484 7284 c-18 -14 -18 -15 4 -4 12 6 22 13 22 15 0 8 -5 6 -26 -11z"/>
<path d="M2399 7243 c-71 -48 -178 -141 -290 -253 -121 -121 -152 -155 -194
-214 -11 -16 -30 -40 -42 -54 -24 -26 -30 -52 -12 -52 5 0 7 5 4 10 -3 6 -2
10 4 10 5 0 13 -4 16 -10 10 -16 25 -12 25 7 0 12 3 14 11 6 14 -14 47 -5 53
16 2 9 3 3 1 -14 -2 -16 -4 -36 -4 -43 -1 -7 -5 -11 -9 -8 -5 3 -19 -21 -32
-52 -13 -31 -28 -60 -34 -64 -6 -4 -7 -8 -3 -8 7 0 -81 -179 -94 -190 -3 -3
-23 -39 -43 -80 -21 -41 -42 -79 -47 -85 -5 -5 -9 54 -9 153 0 158 -6 187 -30
142 -15 -28 -8 -303 8 -322 8 -10 9 -24 2 -49 -21 -74 2 -54 49 41 54 111 200
362 341 589 22 34 40 67 40 72 0 14 196 302 261 385 33 42 59 77 57 80 -2 2
-15 -4 -29 -13z m-384 -473 c3 -5 1 -10 -4 -10 -6 0 -11 5 -11 10 0 6 2 10 4
10 3 0 8 -4 11 -10z"/>
<path d="M3342 7031 c-18 -22 -32 -43 -32 -46 0 -4 -13 -25 -29 -48 -24 -36
-95 -154 -134 -222 -6 -11 -45 -90 -88 -175 -128 -260 -244 -552 -274 -690
-13 -61 4 -27 39 81 37 112 76 220 100 272 8 17 29 66 46 107 102 239 230 481
352 664 63 93 73 122 20 57z"/>
<path d="M5522 7005 c162 -221 282 -416 417 -678 98 -192 126 -218 36 -34
-138 282 -331 593 -446 717 l-51 55 44 -60z"/>
<path d="M3562 6853 c-54 -131 -72 -180 -72 -200 0 -29 15 -1 34 62 10 33 34
98 53 144 18 46 32 85 30 87 -2 2 -22 -40 -45 -93z"/>
<path d="M3284 6643 c-29 -43 -42 -65 -64 -108 -11 -22 -45 -85 -75 -140 -88
-160 -253 -500 -296 -610 -11 -27 -26 -63 -34 -80 -15 -34 -58 -144 -85 -220
-9 -27 -21 -59 -25 -70 -6 -14 -5 -17 3 -10 5 6 29 55 52 110 23 55 51 120 62
145 29 64 44 99 66 150 50 119 89 200 249 518 95 188 171 342 169 342 -2 0
-12 -12 -22 -27z"/>
<path d="M3477 6624 c-4 -4 -7 -14 -7 -23 0 -11 3 -12 11 -4 6 6 10 16 7 23
-2 6 -7 8 -11 4z"/>
<path d="M3442 6503 c-39 -146 -53 -259 -53 -424 0 -87 3 -169 5 -181 8 -32
19 -157 17 -193 0 -20 2 -26 8 -17 6 10 11 6 19 -17 7 -19 7 -31 1 -31 -5 0
-9 7 -9 15 0 8 -4 15 -10 15 -5 0 -10 -9 -10 -20 0 -16 -7 -20 -37 -20 -94 -1
-239 -56 -288 -110 -41 -46 -33 -14 23 93 129 242 198 384 190 393 -2 2 -13
-13 -23 -34 -11 -20 -44 -80 -74 -132 -29 -52 -76 -135 -104 -185 -65 -116
-156 -255 -168 -255 -5 0 -9 -7 -9 -15 0 -18 -45 -92 -124 -205 -33 -47 -82
-119 -109 -160 -28 -41 -61 -88 -74 -103 -35 -43 -27 -57 10 -17 46 48 186
240 286 390 46 69 100 140 120 158 35 32 90 63 121 68 8 1 52 12 97 24 103 27
186 25 191 -5 6 -35 64 -218 85 -265 109 -248 176 -368 277 -488 68 -82 120
-132 120 -115 0 5 -27 41 -60 81 -106 126 -252 354 -236 370 3 3 11 -8 18 -24
44 -101 260 -364 298 -364 10 0 -46 69 -79 100 -23 20 -114 151 -155 220 -104
178 -219 468 -195 496 6 7 5 15 -4 23 -14 11 -32 73 -62 206 -47 209 -40 541
16 758 6 22 8 41 6 43 -3 3 -14 -30 -25 -73z m-29 -897 c8 -21 -2 -26 -47 -26
-40 -1 -91 -9 -151 -25 -26 -7 -28 -7 -15 6 42 41 202 75 213 45z m76 -134
c27 -101 26 -113 -4 -33 -31 84 -37 111 -26 111 5 0 18 -35 30 -78z m108 -304
c-3 -8 -6 -5 -6 6 -1 11 2 17 5 13 3 -3 4 -12 1 -19z"/>
<path d="M6100 6251 c0 -5 5 -13 10 -16 6 -3 10 -2 10 4 0 5 -4 13 -10 16 -5
3 -10 2 -10 -4z"/>
<path d="M6126 6159 c3 -30 16 -85 29 -124 24 -72 75 -238 80 -265 2 -8 21
-78 43 -155 77 -267 112 -447 147 -749 13 -109 28 -203 34 -209 6 -6 11 -21
11 -33 0 -22 12 -38 22 -29 6 6 -29 313 -48 425 -2 14 -13 77 -24 140 -31 176
-66 332 -106 475 -20 72 -42 155 -50 185 -8 30 -19 64 -24 75 -5 11 -21 56
-35 100 -27 81 -74 207 -81 214 -2 2 -1 -21 2 -50z"/>
<path d="M5838 6063 c20 -48 195 -380 206 -391 18 -17 -110 241 -173 351 -32
56 -48 75 -33 40z"/>
<path d="M4115 5685 c3 -27 23 -126 45 -220 22 -93 52 -219 66 -278 64 -273
224 -533 370 -602 71 -34 92 -27 29 9 -129 76 -233 215 -318 428 -39 96 -81
238 -72 246 3 3 6 3 8 1 1 -2 20 -38 41 -79 92 -176 223 -332 375 -447 83 -62
187 -121 197 -110 3 2 -39 34 -93 69 -272 180 -456 428 -563 760 -22 68 -51
157 -65 198 -25 74 -26 74 -20 25z"/>
<path d="M4806 5615 c-11 -104 -1 -395 18 -515 29 -186 107 -394 172 -465 37
-40 44 -16 11 33 -110 160 -171 432 -186 837 -6 180 -7 186 -15 110z"/>
<path d="M5555 5460 c3 -5 11 -10 16 -10 6 0 7 5 4 10 -3 6 -11 10 -16 10 -6
0 -7 -4 -4 -10z"/>
<path d="M2634 5249 c-6 -8 -53 -126 -104 -263 -51 -137 -99 -260 -106 -275
-8 -14 -14 -33 -14 -41 0 -8 -8 -29 -19 -46 -10 -17 -22 -41 -26 -55 -4 -13
-23 -55 -42 -94 -48 -96 -214 -464 -251 -555 -79 -193 -163 -417 -202 -535
-108 -337 -123 -397 -155 -620 -1 -11 -3 -44 -4 -72 0 -29 -5 -53 -10 -53 -11
0 -29 87 -51 255 -16 121 -19 194 -16 535 2 217 2 391 0 385 -2 -5 -10 -82
-19 -171 -21 -216 -21 -581 0 -748 19 -149 68 -365 91 -401 9 -14 14 -25 11
-25 -9 0 -97 139 -130 205 -29 57 -86 241 -87 277 0 9 -4 19 -9 22 -5 4 -6 -8
-1 -27 61 -250 95 -341 172 -459 104 -158 298 -330 470 -415 95 -47 289 -164
356 -215 76 -59 74 -40 -3 28 -63 56 -285 194 -312 194 -44 0 -3 50 81 98 23
13 45 31 50 39 7 13 10 13 18 2 6 -10 8 -7 6 11 -5 42 -47 29 -139 -44 l-83
-65 -41 24 c-71 43 -152 105 -217 168 -78 76 -137 150 -112 140 14 -5 16 -3
10 18 -27 85 -11 262 46 524 48 218 54 224 61 59 9 -244 63 -393 201 -557 51
-60 162 -135 244 -166 62 -23 73 -36 50 -59 -9 -9 -7 -12 10 -12 13 0 25 6 28
14 3 8 22 26 42 39 20 14 61 48 91 77 30 28 68 61 85 73 17 11 33 24 36 27 13
15 120 79 158 93 55 22 64 21 93 -4 13 -11 52 -34 88 -50 35 -16 74 -38 88
-49 13 -10 43 -27 66 -38 23 -11 71 -33 107 -50 160 -74 316 -139 385 -162 49
-15 50 -16 52 -60 11 -190 89 -530 122 -530 6 0 13 -17 16 -37 10 -57 62 -285
91 -396 14 -55 23 -105 20 -112 -3 -8 -1 -15 4 -17 6 -2 15 -28 21 -58 l11
-56 -269 -269 c-148 -149 -295 -299 -328 -335 -32 -36 -77 -85 -100 -110 -22
-25 -61 -70 -85 -100 -25 -30 -48 -56 -52 -58 -5 -2 -8 -15 -8 -28 0 -13 -3
-24 -8 -24 -9 0 -193 80 -238 103 -20 10 -35 12 -40 7 -23 -23 -266 159 -300
225 -13 23 -17 68 -19 195 -3 196 14 352 49 455 14 41 26 80 26 86 0 5 9 29
20 52 26 53 37 171 19 212 -7 17 -11 34 -10 38 1 5 -3 6 -8 3 -5 -3 -11 25
-13 62 -5 84 -24 124 -98 204 -86 92 -77 56 13 -56 32 -39 46 -88 47 -157 0
-46 -23 -119 -38 -119 -4 0 -19 19 -34 43 -64 99 -219 237 -266 237 l-27 0 22
-18 c36 -27 53 -83 53 -170 0 -77 -24 -176 -51 -208 -9 -11 -7 -14 9 -14 21 0
30 18 68 139 18 59 15 161 -6 186 -7 8 -8 15 -3 15 13 0 125 -118 164 -173 28
-40 31 -50 19 -57 -12 -8 -13 -13 -3 -27 21 -30 43 -85 38 -93 -3 -4 4 -10 14
-13 24 -6 32 11 24 56 -4 25 1 42 21 71 14 22 26 46 26 55 1 14 2 13 11 -2 7
-12 7 -27 1 -47 -6 -15 -8 -30 -6 -33 2 -2 -11 -48 -30 -103 -19 -54 -37 -116
-41 -136 -4 -23 -11 -35 -18 -31 -6 4 -8 0 -4 -10 4 -10 2 -29 -4 -44 -6 -15
-12 -64 -15 -108 -3 -44 -9 -110 -15 -147 -14 -104 -11 -278 6 -308 7 -14 21
-38 29 -55 22 -43 32 -54 120 -124 92 -73 170 -115 199 -107 12 3 27 0 34 -5
28 -24 249 -119 273 -118 14 0 19 3 13 6 -19 7 -16 19 20 76 88 137 515 592
806 857 123 112 96 87 256 235 72 66 152 144 179 172 27 29 53 53 58 53 11 0
48 37 42 43 -2 2 17 24 43 48 27 23 56 54 65 68 10 15 18 22 18 17 0 -6 11 4
23 22 l24 32 12 -40 c14 -48 26 -51 35 -8 4 21 1 37 -9 48 -21 23 -20 26 20
73 63 73 37 60 -48 -25 -84 -85 -369 -363 -579 -566 -64 -61 -119 -112 -122
-112 -3 0 -6 8 -6 17 0 9 -5 33 -11 52 -26 86 -30 103 -39 153 -5 29 -16 94
-25 143 -73 408 -105 633 -105 749 0 58 2 67 16 62 9 -3 17 -6 20 -6 10 0 34
-63 34 -92 1 -45 34 -191 59 -259 12 -32 40 -85 61 -118 22 -34 40 -63 40 -65
0 -2 -25 -20 -55 -40 -53 -35 -69 -56 -42 -56 7 0 22 6 33 14 11 8 40 19 64
26 45 12 121 47 130 59 3 4 39 24 80 46 92 46 166 93 203 129 15 14 31 26 36
26 7 0 162 156 240 243 65 73 126 105 254 132 25 5 19 -6 -65 -117 -115 -152
-125 -164 -219 -263 -41 -44 -104 -111 -140 -148 -112 -120 -381 -383 -454
-444 -107 -89 -118 -100 -113 -113 11 -33 258 184 571 500 206 208 299 314
464 528 58 75 66 82 120 98 32 10 67 26 78 35 11 10 52 27 90 39 39 12 96 30
128 41 68 24 137 33 137 18 0 -5 -8 -22 -19 -37 -10 -15 -31 -49 -47 -76 -37
-61 -40 -66 -94 -156 -73 -120 -78 -130 -124 -225 -63 -130 -71 -150 -104
-250 -33 -98 -43 -135 -48 -178 -2 -16 -7 -33 -10 -39 -4 -5 -6 -67 -5 -136 0
-98 4 -129 16 -141 13 -14 15 -8 15 51 0 166 28 333 77 458 34 89 57 126 157
259 47 63 86 119 86 125 0 6 -3 6 -8 1 -5 -6 -32 -38 -62 -73 -29 -34 -55 -61
-57 -59 -8 9 130 240 164 275 7 7 13 18 13 23 0 5 9 22 19 37 10 15 53 79 95
144 41 64 79 118 83 120 4 1 26 28 49 58 22 30 53 73 70 95 35 47 37 50 140
201 45 66 93 143 107 171 25 47 68 93 89 93 14 0 155 97 253 175 176 140 321
306 405 465 14 25 31 53 39 63 8 9 12 20 9 23 -3 3 -36 -38 -73 -91 -86 -124
-144 -192 -241 -287 -189 -183 -382 -312 -599 -398 -41 -16 -78 -30 -82 -30
-3 0 20 17 53 38 119 77 260 231 362 394 126 202 256 508 325 768 64 239 70
268 106 542 18 133 36 396 26 373 -2 -5 -13 -80 -24 -165 -24 -182 -56 -402
-72 -480 -32 -161 -109 -441 -139 -503 l-20 -42 6 53 c6 57 -12 146 -28 136
-5 -3 -6 -50 -2 -113 8 -127 6 -135 -81 -316 -135 -285 -312 -514 -487 -631
-64 -43 -189 -94 -232 -94 -18 -1 -19 -2 -5 -10 26 -15 198 15 311 55 56 19
103 33 106 31 2 -3 -18 -33 -45 -69 -26 -35 -100 -135 -163 -221 -112 -153
-147 -188 -245 -242 -11 -6 -54 -31 -95 -56 -41 -24 -113 -59 -160 -77 -47
-18 -96 -37 -110 -43 -164 -69 -380 -134 -560 -169 -311 -61 -520 -65 -735
-14 -138 32 -183 46 -315 98 -36 14 -94 35 -130 47 -170 54 -517 217 -645 303
-111 75 -190 177 -244 314 -11 28 -30 109 -41 180 -12 70 -23 139 -25 152 -2
13 -7 44 -11 67 -3 24 -9 42 -13 39 -4 -2 -2 -42 5 -88 7 -46 15 -112 18 -148
7 -95 24 -191 41 -239 25 -70 84 -161 147 -226 l59 -61 -83 -42 c-111 -56
-125 -64 -153 -91 -24 -23 -25 -23 -46 -4 -70 63 -127 154 -200 319 -19 42
-67 276 -84 400 -18 145 -33 207 -47 198 -31 -19 58 -572 101 -628 5 -5 13
-25 19 -43 18 -52 99 -176 152 -233 l49 -52 -56 -51 c-31 -28 -62 -55 -71 -60
-42 -24 -217 57 -305 142 -79 76 -156 220 -192 358 -14 53 -24 170 -29 344 -2
75 40 249 67 276 4 4 7 14 7 22 0 8 18 61 40 116 21 56 48 124 59 151 16 41
20 46 26 30 27 -81 129 -269 170 -315 12 -14 37 -47 55 -74 72 -107 241 -236
240 -183 0 6 -26 30 -56 52 -95 67 -183 172 -256 305 -14 25 -39 68 -57 96
-36 59 -71 154 -71 194 0 23 94 258 155 385 13 28 35 77 48 110 22 52 79 181
137 310 10 22 32 81 48 130 17 50 51 144 77 210 76 193 102 286 69 244z m1106
-3057 c12 -5 16 -29 18 -102 1 -52 9 -141 18 -197 9 -56 14 -110 12 -120 -4
-19 -51 214 -67 327 -5 36 -12 73 -16 83 -7 18 7 22 35 9z m265 -60 c109 -28
525 -17 680 18 22 5 41 7 44 4 6 -5 -269 -277 -327 -324 -23 -18 -82 -55 -130
-80 -48 -26 -109 -61 -136 -79 -28 -17 -53 -31 -57 -31 -4 0 -29 30 -55 66
-48 69 -78 145 -86 225 -4 38 -2 46 11 45 23 -1 16 55 -15 123 -29 64 -29 65
-6 56 9 -4 44 -14 77 -23z"/>
<path d="M6224 5048 c177 -373 213 -481 259 -778 3 -14 5 21 6 76 2 184 -35
310 -176 594 -47 96 -146 260 -157 260 -3 0 28 -69 68 -152z"/>
<path d="M3900 4981 c0 -11 5 -23 10 -26 6 -3 10 -13 10 -22 0 -47 130 -273
164 -286 9 -4 1 14 -18 41 -30 42 -61 111 -53 118 1 2 36 -20 77 -48 116 -78
302 -164 400 -183 56 -11 24 8 -80 49 -167 66 -349 173 -408 240 -18 20 -43
59 -57 86 -26 52 -45 64 -45 31z"/>
<path d="M3085 4901 c-12 -5 25 -10 95 -13 101 -5 123 -9 183 -36 37 -17 81
-41 98 -53 16 -11 33 -18 36 -15 8 8 -18 27 -76 56 -25 13 -55 27 -66 33 -59
30 -221 47 -270 28z"/>
<path d="M3075 4810 c-27 -4 -45 -8 -40 -9 6 -1 -30 -17 -79 -37 -50 -19 -104
-44 -122 -55 -25 -15 -42 -18 -69 -13 -38 7 -41 3 -24 -27 13 -26 -2 -45 -40
-54 -27 -6 -85 -55 -65 -55 6 0 15 5 21 11 6 6 16 10 22 8 6 -2 -7 -31 -29
-64 -21 -32 -44 -71 -50 -86 -7 -16 -23 -30 -42 -35 -37 -11 -49 -34 -19 -34
25 0 26 -9 5 -97 -10 -44 -23 -74 -37 -86 -21 -17 -21 -18 -2 -15 19 3 20 -5
27 -116 7 -106 6 -120 -10 -133 -15 -13 -15 -13 8 -8 14 4 31 14 39 24 13 15
13 15 8 -1 -4 -10 -2 -18 4 -18 6 0 9 -6 6 -14 -6 -16 17 -53 50 -79 13 -10
23 -24 23 -32 0 -7 7 -15 15 -19 18 -6 19 7 4 37 -62 114 -58 347 7 483 99
205 228 330 398 384 138 45 287 1 449 -133 27 -21 50 -37 53 -34 3 3 -2 31
-11 63 -22 75 -93 147 -197 197 -121 59 -167 66 -303 47z m-505 -760 c0 -10
-4 -22 -10 -25 -6 -4 -10 7 -10 25 0 18 4 29 10 25 6 -3 10 -15 10 -25z"/>
<path d="M3147 4586 c-20 -7 -45 -20 -55 -27 -38 -29 -65 -60 -59 -66 4 -3 18
5 32 19 36 37 94 51 141 36 74 -25 86 -106 27 -184 -45 -60 -57 -69 -107 -84
-35 -10 -40 -9 -63 12 -14 13 -31 38 -39 56 -14 34 -15 112 -1 112 4 0 7 5 7
10 0 20 -28 9 -60 -22 -55 -56 -123 -227 -135 -341 -16 -151 44 -332 140 -419
37 -34 69 -44 55 -19 -5 10 -16 24 -25 31 -25 21 -54 83 -61 132 -3 23 -7 53
-9 66 -7 43 16 144 45 201 35 70 88 121 163 159 51 26 63 28 93 19 41 -13 42
-20 6 -57 -61 -61 -78 -196 -32 -260 22 -31 91 -61 97 -43 2 6 12 9 21 6 27
-7 53 30 68 94 28 120 13 179 -62 241 l-34 29 24 26 c31 34 68 35 126 4 97
-51 143 -236 110 -441 -11 -71 -25 -111 -49 -139 -8 -9 -12 -20 -8 -23 7 -7
38 40 56 86 65 170 66 464 2 589 -34 65 -113 143 -177 176 -67 34 -176 44
-237 21z m153 -231 c10 -12 10 -18 0 -30 -16 -19 -39 -19 -46 0 -6 15 11 45
26 45 4 0 13 -7 20 -15z m-42 -245 c-2 -5 -9 -6 -17 -1 -9 6 -11 16 -7 27 7
18 8 18 17 1 6 -10 9 -22 7 -27z m80 22 c6 -18 -15 -14 -22 4 -4 10 -1 14 6
12 6 -2 14 -10 16 -16z m28 -67 c-1 -33 -16 -33 -16 0 0 14 4 25 9 25 5 0 8
-11 7 -25z m-76 -28 c0 -5 10 -5 23 -2 22 7 22 7 2 -10 -20 -17 -14 -17 29 1
19 7 15 -17 -7 -47 -12 -16 -16 -18 -13 -6 3 11 0 17 -9 17 -8 0 -15 -8 -15
-17 0 -13 -2 -15 -8 -5 -5 7 -15 10 -23 7 -20 -7 -45 55 -26 67 9 6 9 8 0 8
-7 0 -13 4 -13 9 0 5 14 4 30 -2 17 -6 30 -15 30 -20z"/>
<path d="M5435 4500 c-84 -14 -108 -30 -199 -135 -89 -100 -132 -252 -123
-430 6 -115 24 -225 37 -225 4 0 10 -10 13 -22 4 -13 13 -32 21 -43 14 -18 14
-15 1 30 -23 79 -19 177 12 275 23 73 34 93 83 142 42 43 63 58 85 59 17 1 42
3 58 5 29 3 36 -10 13 -23 -32 -19 -56 -86 -56 -158 0 -84 15 -111 66 -121 19
-3 39 -15 45 -25 14 -27 41 -10 84 54 26 38 35 62 35 92 0 68 -20 117 -62 158
l-39 37 18 30 c23 40 44 45 102 25 140 -46 227 -257 176 -430 -29 -103 -101
-225 -132 -225 -6 0 -13 -7 -17 -15 -9 -24 6 -17 49 22 109 100 175 270 175
452 0 172 -40 283 -130 365 -62 56 -120 81 -260 110 -8 2 -33 0 -55 -4z m73
-93 c20 -21 26 -36 26 -76 1 -75 -55 -139 -129 -146 -49 -5 -78 7 -121 49 -34
33 -35 36 -24 75 13 49 53 99 95 117 46 22 121 12 153 -19z m10 -283 c12 -8
22 -21 21 -27 0 -9 -2 -9 -6 1 -2 6 -14 12 -24 12 -11 0 -18 -4 -15 -8 3 -5
-3 -8 -12 -7 -22 1 -26 12 -10 30 16 18 19 18 46 -1z m-39 -253 c10 -7 7 -9
-12 -8 -14 1 -23 5 -20 10 6 9 15 9 32 -2z"/>
<path d="M8890 4426 c0 -5 13 -23 29 -40 16 -17 41 -44 55 -61 17 -20 25 -25
26 -15 0 9 -25 40 -55 70 -30 30 -55 50 -55 46z"/>
<path d="M8549 4246 c15 -18 451 -238 451 -227 0 8 -140 91 -153 91 -8 0 -177
83 -237 117 -19 11 -44 23 -54 26 -16 6 -17 5 -7 -7z"/>
<path d="M2265 4208 c-8 -21 99 -342 152 -458 43 -93 103 -254 103 -275 0 -15
3 -16 9 -7 11 17 -13 102 -78 277 -29 77 -77 212 -108 300 -57 167 -68 189
-78 163z"/>
<path d="M1662 3990 c0 -14 2 -19 5 -12 2 6 2 18 0 25 -3 6 -5 1 -5 -13z"/>
<path d="M2217 3932 c-36 -85 -36 -138 3 -211 32 -58 105 -151 120 -151 10 0
-26 69 -45 85 -6 6 -26 36 -44 69 -32 55 -33 62 -28 127 3 37 11 77 17 89 6
12 10 29 8 38 -2 10 -15 -10 -31 -46z"/>
<path d="M7011 3914 c-12 -26 -20 -48 -18 -51 3 -2 15 17 27 42 12 25 20 48
18 50 -2 3 -14 -16 -27 -41z"/>
<path d="M1642 3865 c0 -16 2 -22 5 -12 2 9 2 23 0 30 -3 6 -5 -1 -5 -18z"/>
<path d="M6948 3788 c-20 -35 -47 -85 -62 -111 -15 -27 -26 -53 -24 -59 2 -5
10 3 18 19 8 15 20 35 27 43 19 24 86 161 80 166 -2 3 -20 -23 -39 -58z"/>
<path d="M8330 3803 c0 -7 4 -13 8 -13 4 0 16 -13 25 -30 10 -16 23 -35 30
-42 53 -57 269 -360 372 -523 74 -118 188 -335 180 -343 -3 -3 -6 -3 -8 -1 -2
2 -14 22 -29 44 -56 88 -451 505 -478 505 -6 0 -20 -9 -32 -19 l-20 -20 20
-26 c57 -72 105 -220 127 -390 l13 -100 1 86 c1 96 -17 204 -53 322 -13 42
-21 77 -17 77 12 0 305 -303 398 -410 49 -58 98 -121 109 -140 16 -31 19 -33
22 -13 9 59 -163 389 -325 622 -118 170 -342 440 -343 414z"/>
<path d="M7920 3690 c5 -19 14 -44 19 -55 23 -50 126 -351 157 -460 74 -255
100 -521 70 -719 -9 -59 -19 -112 -22 -117 -3 -5 -1 -9 4 -9 20 0 44 158 49
315 5 169 -11 312 -58 499 -44 174 -167 502 -210 557 l-19 24 10 -35z"/>
<path d="M887 3607 c-25 -47 -65 -212 -71 -292 l-5 -70 13 65 c16 76 59 241
76 288 16 44 8 49 -13 9z"/>
<path d="M3328 3593 c7 -3 16 -2 19 1 4 3 -2 6 -13 5 -11 0 -14 -3 -6 -6z"/>
<path d="M6774 3499 c-38 -56 -74 -110 -79 -119 -6 -9 -17 -23 -25 -32 -8 -8
-87 -102 -175 -208 -88 -106 -184 -221 -212 -254 -85 -98 -60 -89 39 14 104
109 311 363 375 462 24 37 48 70 53 73 14 9 103 155 97 161 -2 3 -36 -41 -73
-97z"/>
<path d="M5310 3530 c20 -13 53 -13 45 0 -3 6 -18 10 -33 10 -21 0 -24 -2 -12
-10z"/>
<path d="M5495 3500 c3 -5 15 -10 25 -10 10 0 22 5 25 10 4 6 -7 10 -25 10
-18 0 -29 -4 -25 -10z"/>
<path d="M7883 3448 c15 -65 70 -270 91 -341 35 -114 83 -327 95 -420 30 -222
-6 -443 -100 -613 l-33 -59 28 25 c36 32 101 167 121 250 34 143 30 375 -11
555 -47 213 -171 624 -188 625 -4 0 -6 -10 -3 -22z"/>
<path d="M799 3208 c-3 -22 -1 -34 4 -29 5 5 7 21 5 37 -3 27 -4 26 -9 -8z"/>
<path d="M7495 3054 c-6 -109 -37 -374 -54 -469 -5 -27 -16 -91 -25 -141 -29
-166 -75 -316 -61 -199 18 154 2 527 -23 558 -8 10 -7 26 4 63 20 67 13 89
-11 34 -33 -76 -118 -241 -168 -326 -30 -53 -75 -109 -129 -161 -107 -105
-158 -144 -337 -260 -80 -53 -170 -111 -199 -130 -88 -57 -173 -103 -192 -103
-10 0 -21 -8 -25 -17 -3 -10 -50 -45 -105 -78 -481 -289 -687 -462 -743 -625
l-16 -45 -1 76 c0 42 4 101 10 130 13 73 65 200 112 278 42 70 43 71 28 71 -6
0 -49 -58 -95 -129 -46 -71 -107 -153 -135 -182 -58 -61 -135 -185 -152 -244
-6 -22 -15 -44 -20 -49 -4 -6 -8 -34 -8 -64 0 -31 -4 -51 -10 -47 -5 3 -7 12
-3 20 3 8 1 15 -5 15 -5 0 -12 -7 -16 -15 -3 -8 -9 -15 -13 -14 -39 6 -53 -2
-54 -33 0 -30 -1 -31 -9 -10 -5 12 -12 22 -14 22 -3 0 -2 -8 1 -17 5 -12 2
-15 -10 -10 -24 9 -21 -1 6 -23 21 -18 7 -24 -19 -7 -8 4 -14 -7 -18 -34 -4
-22 -11 -37 -16 -34 -12 7 -26 -23 -16 -33 4 -3 11 0 16 8 7 10 10 11 10 3 0
-7 7 -13 16 -13 8 0 12 -4 9 -10 -8 -13 5 -13 25 0 13 9 13 10 0 10 -11 1 -10
4 4 15 11 8 16 15 10 16 -5 0 1 4 14 9 12 5 22 15 22 21 0 8 -5 7 -17 -2 -15
-12 -16 -12 -10 4 4 10 7 32 7 48 0 32 11 37 34 13 15 -14 16 -12 17 18 1 18
3 25 6 15 2 -9 9 -17 14 -17 6 0 7 5 3 11 -4 7 -1 10 7 7 8 -3 14 -11 14 -19
0 -8 5 -17 10 -21 6 -5 4 -12 -5 -19 -12 -9 -12 -10 3 -5 13 4 34 -7 68 -38
49 -44 107 -72 132 -63 6 2 -7 14 -31 26 -59 30 -118 91 -125 131 -17 84 1
179 51 270 31 55 134 201 139 196 2 -1 -1 -25 -6 -52 -29 -150 -22 -306 15
-362 15 -23 17 -24 26 -8 6 10 8 32 5 49 -13 87 72 241 187 341 127 109 311
235 609 415 l72 43 20 -27 c11 -14 50 -79 86 -143 36 -64 92 -160 124 -212 32
-52 94 -169 138 -259 43 -91 107 -210 142 -265 59 -96 285 -464 372 -606 21
-37 42 -74 46 -84 6 -15 14 -17 45 -12 92 15 297 18 337 4 l40 -13 -1 -123 c0
-89 3 -122 12 -122 18 0 26 44 25 147 0 106 -8 127 -54 142 -39 13 -174 15
-311 5 -72 -5 -96 -4 -96 5 0 7 -28 63 -62 124 -63 115 -99 174 -278 452 -82
128 -190 326 -190 350 0 2 -18 42 -41 87 -40 83 -81 181 -94 228 -4 14 -16 45
-27 70 -61 139 -94 194 -113 187 -16 -7 -40 18 -31 31 3 5 27 5 58 0 72 -12
154 -11 211 2 26 5 62 12 80 14 128 17 400 174 475 275 34 46 27 45 -25 -5
-125 -120 -360 -228 -551 -255 -65 -10 -95 -9 -177 5 -107 19 -129 26 -73 26
35 0 264 105 370 170 105 65 228 185 228 223 0 6 -26 -14 -57 -44 -71 -68
-162 -138 -226 -173 -52 -28 -167 -70 -174 -63 -2 3 13 15 34 28 181 109 423
288 477 352 19 23 54 62 76 87 64 69 124 167 156 253 16 42 31 77 35 77 7 0
19 -289 20 -490 2 -192 -38 -327 -169 -567 -15 -28 -48 -69 -72 -91 -74 -66
-37 -59 68 11 89 61 208 165 198 174 -2 3 -36 -21 -76 -51 -40 -31 -76 -56
-81 -56 -5 0 1 17 14 38 106 169 226 554 279 896 23 151 36 454 20 481 -7 14
-12 -9 -17 -91z"/>
<path d="M3885 3139 c-27 -5 -72 -20 -99 -33 -44 -21 -51 -29 -63 -72 -52
-183 -2 -331 152 -449 70 -53 211 -115 263 -115 24 0 3 17 -27 23 -30 6 -176
75 -237 112 -17 10 -53 51 -80 89 -48 70 -48 72 -52 162 -4 83 -2 98 21 148
23 50 32 59 79 80 70 32 170 39 283 22 50 -7 99 -10 110 -6 24 9 19 12 -73 34
-68 17 -195 19 -277 5z"/>
<path d="M792 3110 c0 -19 2 -27 5 -17 2 9 2 25 0 35 -3 9 -5 1 -5 -18z"/>
<path d="M4312 3124 c-25 -11 1 -24 49 -24 28 0 64 -7 81 -16 22 -11 45 -14
74 -10 33 4 47 2 56 -10 59 -74 86 -87 130 -63 18 10 24 8 39 -12 20 -26 54
-151 51 -187 -3 -39 -52 -123 -100 -171 -69 -67 -239 -151 -309 -151 -12 0
-23 -5 -23 -11 0 -6 8 -8 18 -6 9 3 40 8 67 12 86 11 206 78 279 156 56 59 66
75 76 126 16 77 7 172 -24 239 -26 57 -44 66 -80 39 -31 -23 -44 -18 -77 29
l-31 43 -96 7 c-54 4 -113 9 -132 11 -19 2 -41 2 -48 -1z"/>
<path d="M1471 3074 c0 -27 4 -58 9 -69 6 -13 7 3 3 45 -7 79 -13 91 -12 24z"/>
<path d="M5974 2567 c-54 -45 -115 -94 -134 -108 -63 -48 -171 -159 -230 -237
-14 -19 -31 -40 -39 -48 -7 -8 -12 -17 -10 -19 5 -4 66 51 184 164 44 42 116
108 159 146 86 76 153 140 175 168 30 38 -12 12 -105 -66z"/>
<path d="M7962 2523 c-1 -18 -14 -69 -28 -115 -56 -178 -143 -307 -279 -416
-55 -44 -30 -40 35 6 143 99 290 373 277 514 -3 34 -4 36 -5 11z"/>
<path d="M8451 2453 c-10 -26 -10 -27 4 -9 8 11 15 23 15 28 0 15 -7 8 -19
-19z"/>
<path d="M8381 2323 c-83 -142 -213 -270 -326 -323 -96 -44 -207 -79 -292 -91
-151 -21 -165 -29 -48 -25 233 8 454 123 607 316 39 49 123 198 116 206 -3 2
-28 -35 -57 -83z"/>
<path d="M3163 2378 c-6 -13 -14 -54 -18 -93 -3 -38 -10 -72 -16 -76 -5 -3 -7
-13 -4 -21 5 -12 -5 -18 -39 -27 -25 -6 -46 -16 -46 -21 0 -6 9 -6 26 0 32 13
31 13 31 -7 0 -10 -5 -21 -11 -25 -8 -6 -7 -11 3 -17 17 -11 21 -29 27 -126 5
-71 -5 -210 -13 -187 -3 6 -10 12 -16 12 -6 0 -1 -10 11 -23 43 -46 68 -167
81 -402 6 -110 21 -227 40 -330 17 -88 40 -209 51 -269 23 -121 66 -233 109
-286 46 -55 47 -28 2 48 -46 77 -76 181 -117 407 -47 253 -62 358 -69 480 -4
66 -9 129 -11 140 -9 45 -25 283 -23 332 2 36 7 53 16 53 11 0 15 12 12 36 0
4 5 10 12 15 8 4 10 11 6 15 -10 10 -17 1 -22 -26 -9 -44 -15 -33 -14 26 0 51
2 55 11 34 6 -14 12 -20 15 -13 2 7 0 21 -6 31 -7 13 -8 71 -4 164 6 150 -2
202 -24 156z m-36 -240 c-3 -8 -6 -5 -6 6 -1 11 2 17 5 13 3 -3 4 -12 1 -19z"/>
<path d="M2740 2284 c0 -8 5 -12 10 -9 6 4 8 11 5 16 -9 14 -15 11 -15 -7z"/>
<path d="M2920 2260 c0 -19 3 -21 12 -12 9 9 9 15 0 24 -9 9 -12 7 -12 -12z"/>
<path d="M1116 2153 c21 -38 43 -72 49 -78 7 -5 22 -28 35 -50 13 -22 33 -51
43 -65 l20 -25 -6 23 c-5 20 -2 23 14 19 17 -5 18 -3 7 10 -6 8 -22 19 -34 24
-25 9 -120 137 -136 182 -6 15 -14 27 -20 27 -5 0 7 -30 28 -67z"/>
<path d="M2875 2200 c-10 -11 -22 -17 -26 -14 -5 3 -9 1 -9 -4 0 -5 -10 -14
-22 -21 -21 -10 -20 -11 12 -6 19 3 44 16 56 29 12 13 30 26 40 29 14 3 12 5
-7 6 -14 0 -34 -8 -44 -19z"/>
<path d="M2920 2190 c0 -5 10 -10 23 -10 18 0 19 2 7 10 -19 13 -30 13 -30 0z"/>
<path d="M2985 2191 c-3 -6 -3 -11 2 -12 44 -5 71 -5 93 2 21 6 19 7 -17 8
-23 1 -48 4 -56 7 -8 3 -18 1 -22 -5z"/>
<path d="M890 2132 c-36 -18 -64 -58 -52 -76 4 -6 8 -2 10 10 2 12 14 32 28
45 23 22 27 22 71 11 57 -16 69 -8 20 13 -44 18 -35 18 -77 -3z"/>
<path d="M3196 2115 c-3 -8 -1 -15 4 -15 6 0 10 7 10 15 0 8 -2 15 -4 15 -2 0
-6 -7 -10 -15z"/>
<path d="M5485 2069 c-4 -6 -5 -12 -2 -15 2 -3 7 2 10 11 7 17 1 20 -8 4z"/>
<path d="M1084 2035 c3 -13 17 -41 31 -61 29 -43 31 -52 10 -60 -21 -9 -19
-31 5 -44 14 -8 26 -8 41 0 18 10 19 13 6 28 -8 9 -18 28 -22 42 -4 14 -12 31
-17 38 -17 20 -3 14 26 -13 14 -13 26 -33 26 -44 0 -11 11 -28 25 -39 24 -19
36 -40 15 -27 -19 12 -48 -15 -74 -71 -27 -56 -27 -56 -64 -49 -59 11 -84 30
-137 104 -83 116 -93 92 -12 -29 55 -83 93 -110 154 -110 49 0 59 7 86 61 16
32 30 46 54 53 31 8 37 5 110 -61 80 -71 117 -95 106 -67 -3 7 -9 14 -14 14
-6 0 -19 16 -30 35 -12 19 -26 35 -33 35 -6 0 -32 20 -56 45 -24 25 -49 45
-55 45 -6 0 -22 18 -36 41 -13 22 -29 48 -34 57 -15 25 -97 102 -108 102 -5 0
-6 -11 -3 -25z m83 -151 c-3 -3 -12 -4 -19 -1 -8 3 -5 6 6 6 11 1 17 -2 13 -5z"/>
<path d="M748 2033 c7 -3 16 -2 19 1 4 3 -2 6 -13 5 -11 0 -14 -3 -6 -6z"/>
<path d="M835 2020 c3 -5 13 -10 21 -10 8 0 12 5 9 10 -3 6 -13 10 -21 10 -8
0 -12 -4 -9 -10z"/>
<path d="M1350 1942 c0 -5 8 -16 18 -24 26 -24 184 -99 191 -92 3 4 1 8 -4 10
-6 2 -52 29 -102 59 -97 57 -103 60 -103 47z"/>
<path d="M710 1896 c0 -9 5 -16 10 -16 6 0 10 4 10 9 0 6 -4 13 -10 16 -5 3
-10 -1 -10 -9z"/>
<path d="M1290 1903 c0 -5 11 -20 25 -33 23 -22 34 -18 17 5 -13 19 -42 38
-42 28z"/>
<path d="M7377 1874 c-10 -13 -13 -24 -8 -24 10 0 36 39 29 45 -2 2 -11 -8
-21 -21z"/>
<path d="M565 1880 c3 -5 12 -7 20 -3 21 7 19 13 -6 13 -11 0 -18 -4 -14 -10z"/>
<path d="M630 1868 c14 -5 37 -17 53 -25 15 -8 27 -12 27 -8 0 11 -65 45 -85
44 -17 0 -16 -2 5 -11z"/>
<path d="M1377 1843 c-6 -5 47 -32 158 -78 11 -5 29 -9 40 -11 112 -12 172
-28 342 -91 72 -27 99 -42 122 -70 58 -70 140 -247 141 -300 0 -27 17 -31 22
-5 6 25 -19 127 -41 170 -11 20 -43 70 -71 111 -45 64 -60 77 -114 101 -76 34
-242 90 -267 90 -10 0 -23 9 -28 19 -16 28 -67 44 -85 25 -25 -24 -97 -12
-159 29 -28 18 -49 22 -60 10z m258 -63 c3 -6 -1 -7 -9 -4 -18 7 -21 14 -7 14
6 0 13 -4 16 -10z"/>
<path d="M720 1822 c0 -5 7 -13 16 -16 10 -4 14 -1 12 6 -5 15 -28 23 -28 10z"/>
<path d="M2576 1790 c6 -24 41 -80 49 -80 7 0 -19 55 -38 81 l-18 24 7 -25z"/>
<path d="M787 1788 c6 -7 13 -41 16 -75 6 -57 5 -63 -15 -74 -24 -13 -178 -15
-215 -4 -22 7 -22 6 -16 -63 l6 -69 -33 -16 c-57 -29 -93 -31 -123 -7 -15 12
-27 17 -27 12 0 -14 22 -30 53 -37 28 -7 35 -19 17 -30 -23 -14 -78 -145 -60
-145 4 0 11 12 14 26 8 29 50 99 75 124 18 18 71 43 78 37 2 -2 -1 -16 -7 -31
-13 -34 -13 -106 0 -126 7 -11 10 -2 10 31 0 67 25 132 59 152 30 17 97 23
117 9 37 -24 25 -123 -22 -192 -41 -60 -29 -73 24 -25 27 24 43 49 51 80 18
72 14 91 -27 135 -43 44 -76 51 -126 25 -15 -8 -32 -15 -37 -15 -12 0 -11 24
2 53 9 20 22 26 92 36 94 15 134 32 147 66 12 30 2 95 -18 118 -18 20 -50 25
-35 5z"/>
<path d="M1390 1791 c0 -10 24 -21 43 -21 7 0 3 7 -7 15 -22 17 -36 19 -36 6z"/>
<path d="M1545 1720 c3 -5 8 -10 11 -10 2 0 4 5 4 10 0 6 -5 10 -11 10 -5 0
-7 -4 -4 -10z"/>
<path d="M472 1675 c-12 -26 -7 -31 17 -16 9 6 10 14 4 25 -8 15 -11 14 -21
-9z"/>
<path d="M1546 1678 c-17 -93 -21 -103 -41 -101 -11 1 -40 9 -65 19 -80 31
-143 -5 -155 -90 -11 -71 2 -115 45 -158 30 -30 45 -38 75 -38 46 0 42 13 -15
43 -53 28 -70 56 -70 117 0 94 50 131 123 92 23 -12 47 -22 53 -22 7 0 14 -7
18 -15 5 -15 36 -21 36 -7 10 147 8 223 -4 160z"/>
<path d="M670 1671 c0 -10 38 -18 63 -13 9 2 15 8 12 13 -8 12 -75 12 -75 0z"/>
<path d="M1600 1621 c5 -11 24 -30 41 -43 17 -12 53 -43 80 -67 59 -52 67 -33
9 22 -98 94 -153 131 -130 88z"/>
<path d="M4955 1613 c-11 -2 -43 -9 -71 -14 -57 -11 -69 -28 -47 -69 8 -16 13
-19 13 -9 0 18 70 29 184 29 34 0 71 3 84 6 29 8 25 34 -8 51 -24 12 -112 16
-155 6z"/>
<path d="M4667 1576 c-4 -10 -5 -21 -2 -24 9 -9 17 6 13 25 -3 17 -4 17 -11
-1z"/>
<path d="M4616 1511 c-4 -5 -2 -12 3 -15 5 -4 12 -2 15 3 4 5 2 12 -3 15 -5 4
-12 2 -15 -3z"/>
<path d="M1580 1440 c20 -78 43 -120 65 -120 12 0 12 7 -4 43 -10 23 -27 64
-37 91 -30 78 -45 69 -24 -14z"/>
<path d="M2825 1500 c3 -5 8 -10 11 -10 2 0 4 5 4 10 0 6 -5 10 -11 10 -5 0
-7 -4 -4 -10z"/>
<path d="M1765 1435 c29 -81 37 -119 37 -181 0 -40 -5 -80 -10 -90 -15 -29
-64 -136 -75 -164 -15 -38 -58 -121 -81 -155 -90 -132 -304 -287 -392 -285
-22 1 -99 -4 -171 -10 -96 -8 -138 -8 -153 0 -11 6 -25 8 -30 5 -15 -9 -163
31 -220 60 -28 14 -81 56 -119 93 -88 87 -123 152 -161 291 -7 26 -15 40 -21
34 -12 -12 24 -139 58 -206 33 -66 151 -184 225 -225 l58 -32 -34 -48 c-47
-66 -89 -142 -83 -148 3 -3 34 37 69 88 57 84 66 93 93 91 38 -2 158 -23 164
-28 2 -2 -20 -66 -48 -141 -45 -117 -78 -252 -58 -233 4 3 29 66 56 140 78
214 77 212 112 204 20 -5 38 -1 54 9 13 9 40 16 59 16 33 0 35 -2 41 -37 16
-101 38 -171 67 -213 39 -56 166 -182 208 -206 24 -15 30 -24 25 -41 -4 -18
-1 -23 13 -23 43 0 245 478 297 702 8 37 15 122 16 203 1 92 6 149 15 166 7
14 22 64 34 111 20 81 20 89 5 154 -9 38 -25 80 -36 94 -17 20 -19 21 -14 5z
m-39 -527 c-7 -85 -10 -99 -90 -344 -25 -78 -46 -150 -46 -159 0 -18 -36 -113
-80 -210 -15 -33 -30 -70 -34 -82 -4 -13 -11 -23 -15 -23 -30 0 -204 171 -243
239 -23 40 -32 70 -36 121 l-4 67 57 6 c116 12 264 109 377 247 46 56 108 171
108 199 0 11 3 21 6 21 4 0 4 -37 0 -82z"/>
<path d="M4750 1230 c0 -5 5 -10 11 -10 5 0 7 5 4 10 -3 6 -8 10 -11 10 -2 0
-4 -4 -4 -10z"/>
<path d="M920 1219 c-53 -16 -80 -46 -80 -90 0 -27 6 -43 23 -56 13 -10 25
-22 26 -28 14 -47 81 -95 134 -95 26 0 107 56 107 74 0 7 13 25 30 41 30 29
33 61 7 93 -41 52 -171 84 -247 61z m167 -45 c53 -23 83 -84 47 -98 -9 -4 -41
3 -71 14 -39 15 -73 20 -121 18 -61 -3 -67 -1 -70 18 -8 58 120 87 215 48z
m-8 -118 c13 -14 12 -18 -9 -41 -14 -15 -35 -25 -50 -25 -30 0 -80 34 -80 55
0 33 108 42 139 11z"/>
<path d="M4720 1216 c0 -2 7 -9 15 -16 9 -7 15 -8 15 -2 0 5 -7 12 -15 16 -8
3 -15 4 -15 2z"/>
<path d="M613 1193 c-21 -8 -14 -23 10 -23 32 0 67 -39 73 -82 8 -49 -17 -93
-61 -109 -46 -17 -45 -33 2 -26 49 8 83 44 90 94 8 58 -12 108 -51 133 -34 20
-42 22 -63 13z"/>
<path d="M4707 1186 c-4 -10 -5 -21 -2 -24 9 -9 17 6 13 25 -3 17 -4 17 -11
-1z"/>
<path d="M2725 1180 c-3 -5 -2 -10 4 -10 5 0 13 5 16 10 3 6 2 10 -4 10 -5 0
-13 -4 -16 -10z"/>
<path d="M4760 1175 c-8 -9 -8 -15 -2 -15 12 0 26 19 19 26 -2 2 -10 -2 -17
-11z"/>
<path d="M4520 1125 c0 -32 3 -55 7 -51 7 7 5 98 -3 105 -2 2 -4 -22 -4 -54z"/>
<path d="M2510 1155 c0 -8 4 -15 10 -15 5 0 7 7 4 15 -4 8 -8 15 -10 15 -2 0
-4 -7 -4 -15z"/>
<path d="M2640 1160 c0 -5 5 -10 11 -10 5 0 7 5 4 10 -3 6 -8 10 -11 10 -2 0
-4 -4 -4 -10z"/>
<path d="M4580 1129 c0 -11 5 -17 10 -14 6 3 10 13 10 21 0 8 -4 14 -10 14 -5
0 -10 -9 -10 -21z"/>
<path d="M166 1114 c-10 -14 -16 -28 -13 -30 2 -3 12 7 21 22 10 14 16 28 13
30 -2 3 -12 -7 -21 -22z"/>
<path d="M511 1087 c-1 -60 21 -115 51 -126 33 -13 34 -5 3 22 -21 17 -31 39
-40 88 l-13 64 -1 -48z"/>
<path d="M1437 1124 c-10 -11 3 -24 23 -24 21 0 70 -54 70 -77 0 -49 -77 -113
-136 -113 -39 0 -81 29 -88 61 -7 36 0 57 32 92 29 31 15 36 -29 10 -45 -27
-55 -84 -25 -142 21 -39 44 -51 101 -51 76 0 155 53 171 116 9 35 -14 91 -46
114 -28 20 -61 26 -73 14z"/>
<path d="M4877 1102 c-15 -6 -12 -9 13 -19 27 -10 31 -10 28 4 -4 19 -17 24
-41 15z"/>
<path d="M2625 1089 c-4 -6 -5 -13 -2 -16 7 -7 27 6 27 18 0 12 -17 12 -25 -2z"/>
<path d="M4942 1000 c-52 -50 -98 -88 -103 -84 -5 3 -9 0 -9 -6 0 -6 -5 -8
-12 -4 -10 6 -10 5 -1 -7 21 -26 -6 -54 -46 -46 -29 6 -31 5 -21 -13 8 -15 5
-24 -12 -42 -13 -13 -31 -35 -41 -50 -9 -16 -23 -28 -30 -28 -7 0 -28 30 -47
68 l-34 67 -12 -40 c-7 -22 -13 -50 -13 -62 -1 -12 -4 -24 -9 -27 -4 -2 -19
-42 -32 -87 -26 -88 -30 -93 -155 -207 -43 -38 -61 -49 -66 -40 -5 8 -8 3 -6
-13 2 -21 -21 -47 -135 -152 -75 -70 -142 -127 -147 -127 -5 0 -27 16 -48 35
-23 21 -45 34 -56 31 -9 -2 -15 0 -12 4 3 5 -4 14 -15 20 -15 8 -27 7 -52 -6
-57 -28 -68 -44 -68 -91 0 -41 11 -55 26 -32 4 7 19 -3 41 -27 30 -32 38 -36
54 -26 12 8 19 8 19 2 0 -6 29 -9 70 -9 62 1 70 3 70 21 0 10 -4 16 -10 13
-59 -36 134 158 380 383 68 62 128 111 134 109 5 -2 12 -10 15 -18 4 -12 2
-12 -12 0 -10 7 -17 9 -17 3 0 -12 25 -23 34 -15 3 3 3 18 0 33 -7 34 12 49
31 24 11 -16 10 -27 -7 -74 -11 -30 -25 -59 -31 -65 -7 -7 -7 -5 -2 4 6 11 4
13 -11 7 -10 -4 -15 -4 -11 0 4 4 2 13 -5 21 -6 7 -8 16 -4 20 3 4 13 -2 21
-13 14 -18 14 -18 9 3 -7 26 -30 37 -38 18 -5 -15 2 -66 10 -75 3 -3 11 -5 17
-5 7 0 12 -7 12 -15 0 -21 43 -26 51 -6 3 9 14 16 24 16 10 0 21 6 24 13 3 6
4 3 3 -8 -2 -16 5 -21 31 -23 18 -2 30 -8 27 -13 -12 -19 6 -28 25 -12 19 17
19 17 0 38 -11 12 -20 29 -20 38 0 10 -9 25 -20 34 -21 18 -27 43 -10 43 6 0
10 9 10 21 0 15 5 19 15 15 21 -8 19 6 -4 31 -11 11 -22 41 -26 65 -6 41 -5
47 22 67 15 12 49 41 74 66 43 42 47 43 67 29 19 -13 21 -13 16 0 -3 8 -12 17
-20 20 -9 3 -12 11 -9 17 10 16 49 28 60 18 7 -5 11 -1 11 11 0 10 -5 16 -11
14 -5 -3 6 8 25 25 19 17 38 31 42 31 4 0 10 11 14 25 3 14 10 22 15 19 5 -3
9 5 9 18 0 18 2 20 10 8 8 -12 10 -11 10 7 0 12 8 27 18 32 20 11 27 51 9 51
-7 -1 -54 -41 -105 -90z m-372 -325 c0 -8 -4 -15 -9 -15 -5 0 -11 7 -15 15 -3
9 0 15 9 15 8 0 15 -7 15 -15z m30 -15 c0 -5 -5 -10 -11 -10 -5 0 -7 5 -4 10
3 6 8 10 11 10 2 0 4 -4 4 -10z m-20 -24 c0 -2 -7 -7 -16 -10 -8 -3 -12 -2 -9
4 6 10 25 14 25 6z m91 -13 c8 -9 9 -14 3 -10 -7 4 -14 0 -18 -8 -3 -8 -16
-15 -28 -16 -22 0 -22 -1 -3 -9 19 -8 19 -9 -2 -9 -28 -1 -29 10 -4 33 15 13
20 14 24 4 3 -7 6 -3 6 10 1 26 4 27 22 5z m-131 -13 c0 -11 -4 -20 -9 -20 -5
0 -7 9 -4 20 3 11 7 20 9 20 2 0 4 -9 4 -20z m65 -170 c3 -5 2 -10 -4 -10 -5
0 -13 5 -16 10 -3 6 -2 10 4 10 5 0 13 -4 16 -10z m-660 -318 c-3 -3 -11 0
-18 7 -9 10 -8 11 6 5 10 -3 15 -9 12 -12z m39 -47 c-6 -16 -45 -37 -52 -29
-4 4 -1 9 6 11 6 3 12 10 12 17 0 6 8 12 19 12 10 0 17 -5 15 -11z"/>
<path d="M4398 1073 c7 -3 16 -2 19 1 4 3 -2 6 -13 5 -11 0 -14 -3 -6 -6z"/>
<path d="M4655 1069 c-4 -6 -5 -12 -2 -15 2 -3 7 2 10 11 7 17 1 20 -8 4z"/>
<path d="M4783 1050 c-17 -4 -45 -19 -62 -32 -29 -25 -29 -25 -6 -25 13 0 22
4 19 11 -2 6 5 17 17 25 19 11 21 11 16 -3 -9 -23 8 -20 40 9 30 26 27 27 -24
15z"/>
<path d="M1996 992 c11 -18 28 -41 38 -50 18 -16 18 -16 8 3 -7 11 -24 34 -38
50 l-26 30 18 -33z"/>
<path d="M4418 998 c5 -5 16 -8 23 -6 8 3 3 7 -10 11 -17 4 -21 3 -13 -5z"/>
<path d="M4668 973 c6 -2 18 -2 25 0 6 3 1 5 -13 5 -14 0 -19 -2 -12 -5z"/>
<path d="M6551 962 c-17 -31 -13 -40 5 -14 9 13 14 26 11 29 -3 2 -10 -4 -16
-15z"/>
<path d="M4710 959 c0 -5 11 -9 25 -9 14 0 25 2 25 4 0 2 -11 6 -25 8 -14 3
-25 1 -25 -3z"/>
<path d="M4778 923 c7 -3 16 -2 19 1 4 3 -2 6 -13 5 -11 0 -14 -3 -6 -6z"/>
<path d="M2055 910 c3 -5 11 -10 16 -10 6 0 7 5 4 10 -3 6 -11 10 -16 10 -6 0
-7 -4 -4 -10z"/>
<path d="M6515 910 c-3 -5 -1 -10 4 -10 6 0 11 5 11 10 0 6 -2 10 -4 10 -3 0
-8 -4 -11 -10z"/>
<path d="M2080 884 c0 -10 35 -62 51 -74 3 -3 17 -23 31 -45 14 -22 40 -59 59
-81 19 -23 70 -89 114 -147 44 -58 84 -106 88 -106 9 -1 -127 195 -214 310
-73 94 -129 157 -129 143z"/>
<path d="M4662 859 c10 -28 10 -28 33 -11 24 18 17 29 -24 37 -17 3 -18 0 -9
-26z"/>
<path d="M5634 863 c-3 -16 -10 -44 -14 -63 -10 -43 -28 -164 -36 -245 -3 -33
-7 -71 -9 -85 -8 -54 -24 -191 -35 -300 -6 -63 -13 -127 -15 -142 -4 -22 -1
-28 15 -28 28 0 27 -8 50 333 13 181 41 394 64 482 19 75 19 75 1 75 -8 0 -17
-12 -21 -27z"/>
<path d="M6479 867 c-76 -107 -91 -130 -70 -112 24 20 101 119 101 130 0 12
-16 3 -31 -18z"/>
<path d="M4435 870 c-3 -5 -17 -10 -31 -10 -25 0 -33 -14 -11 -24 6 -3 3 -4
-8 -1 -11 2 -27 0 -35 -5 -13 -8 -13 -10 2 -10 11 0 15 -5 12 -15 -8 -20 10
-19 30 1 9 8 16 13 16 9 0 -3 10 0 23 7 12 7 30 13 40 14 15 1 17 -5 12 -35
-7 -47 9 -12 19 42 7 37 7 37 -28 37 -19 0 -38 -4 -41 -10z"/>
<path d="M4940 870 c-9 -6 -10 -10 -3 -10 6 0 15 5 18 10 8 12 4 12 -15 0z"/>
<path d="M4709 841 c11 -7 11 -9 0 -14 -8 -3 -1 -6 14 -6 25 -1 27 1 13 14 -8
8 -21 15 -28 15 -10 0 -10 -2 1 -9z"/>
<path d="M4315 794 c9 -9 19 -13 23 -10 3 4 0 11 -8 16 -24 15 -33 11 -15 -6z"/>
<path d="M4355 770 c3 -5 11 -10 16 -10 6 0 7 5 4 10 -3 6 -11 10 -16 10 -6 0
-7 -4 -4 -10z"/>
<path d="M4836 772 c-3 -4 4 -9 15 -9 23 -2 25 3 4 10 -8 4 -16 3 -19 -1z"/>
<path d="M4888 773 c8 -3 5 -11 -10 -24 -20 -16 -21 -18 -5 -19 10 0 15 5 12
10 -4 6 5 10 19 10 14 0 26 -4 26 -10 0 -5 -4 -10 -9 -10 -20 0 2 -39 25 -44
16 -4 24 -14 24 -27 0 -27 16 -16 24 17 8 29 -8 48 -33 39 -8 -3 -11 0 -8 9 6
14 -48 57 -69 55 -5 0 -3 -3 4 -6z"/>
<path d="M4249 734 c-7 -43 0 -59 16 -37 11 15 15 15 29 4 11 -9 16 -10 16 -2
0 6 -4 11 -10 11 -5 0 -10 7 -10 16 0 10 -6 14 -14 11 -9 -4 -16 1 -18 11 -3
10 -6 4 -9 -14z"/>
<path d="M4764 733 c3 -6 3 -14 -2 -17 -11 -7 -7 -79 6 -101 8 -15 10 -14 16
10 4 16 3 31 -2 34 -14 10 -10 43 5 37 19 -8 16 2 -8 27 -12 12 -19 17 -15 10z"/>
<path d="M4427 630 c3 -11 7 -20 9 -20 2 0 4 9 4 20 0 11 -4 20 -9 20 -5 0 -7
-9 -4 -20z"/>
<path d="M5010 630 c0 -20 -3 -25 -21 -38 -15 -10 -17 -17 -9 -33 6 -10 16
-19 23 -19 8 0 7 3 -2 9 -8 5 -11 16 -8 26 4 9 11 13 17 10 6 -4 10 6 10 24 0
17 -2 31 -5 31 -3 0 -5 -4 -5 -10z"/>
<path d="M4800 578 c0 -8 6 -23 14 -33 13 -18 14 -18 9 8 -6 29 -23 48 -23 25z"/>
<path d="M2221 563 c0 -4 4 -17 9 -28 8 -19 9 -19 9 2 1 12 -3 25 -9 28 -5 3
-10 3 -9 -2z"/>
<path d="M4728 495 c-3 -14 -1 -23 6 -22 6 1 10 -4 8 -11 -1 -8 2 -11 8 -7 5
3 15 -6 21 -22 7 -16 13 -23 16 -15 4 11 -42 102 -51 102 -2 0 -6 -11 -8 -25z"/>
<path d="M4290 470 c0 -5 5 -10 10 -10 6 0 10 5 10 10 0 6 -4 10 -10 10 -5 0
-10 -4 -10 -10z"/>
<path d="M6155 470 c-3 -5 -1 -10 4 -10 6 0 11 5 11 10 0 6 -2 10 -4 10 -3 0
-8 -4 -11 -10z"/>
<path d="M4210 456 c0 -8 4 -17 9 -21 6 -3 9 4 8 15 -1 23 -17 28 -17 6z"/>
<path d="M6129 433 c-13 -16 -12 -17 4 -4 16 13 21 21 13 21 -2 0 -10 -8 -17
-17z"/>
<path d="M4245 430 c-3 -6 1 -7 9 -4 18 7 21 14 7 14 -6 0 -13 -4 -16 -10z"/>
<path d="M4295 420 c3 -5 8 -10 11 -10 2 0 4 5 4 10 0 6 -5 10 -11 10 -5 0 -7
-4 -4 -10z"/>
<path d="M2253 360 c3 -36 12 -131 18 -212 9 -110 16 -148 26 -148 17 0 17 45
-2 190 -20 160 -31 219 -40 228 -4 4 -5 -22 -2 -58z"/>
<path d="M6070 368 c-19 -23 -80 -100 -134 -172 -54 -72 -110 -146 -124 -164
-18 -24 -21 -32 -10 -32 9 0 28 19 44 42 16 24 34 48 39 54 6 6 30 39 55 74
25 34 63 86 86 114 54 69 87 116 83 121 -2 1 -20 -15 -39 -37z"/>
<path d="M4590 340 c0 -11 68 -25 77 -16 4 3 -6 6 -21 6 -16 0 -25 4 -21 10 3
6 -3 10 -14 10 -12 0 -21 -4 -21 -10z"/>
<path d="M2476 298 c4 -13 20 -52 37 -88 27 -61 46 -117 61 -182 6 -28 36 -40
36 -14 0 8 -7 51 -15 95 -16 81 -36 129 -79 183 -26 34 -50 37 -40 6z"/>
<path d="M5225 241 c-69 -41 -256 -233 -232 -239 11 -2 52 30 121 95 123 117
164 141 224 135 49 -5 54 -12 72 -100 10 -55 4 -87 -12 -59 -7 14 -14 14 -55
2 -25 -8 -51 -19 -56 -24 -6 -6 -18 -11 -26 -11 -9 0 -27 -9 -41 -20 l-25 -20
138 0 c90 0 137 4 137 11 0 44 -26 162 -43 196 -17 34 -27 42 -57 47 -19 2
-48 8 -65 11 -23 4 -42 -2 -80 -24z"/>
<path d="M390 138 c-36 -33 -56 -54 -44 -47 33 22 117 99 113 103 -2 3 -33
-23 -69 -56z"/>
<path d="M6663 147 c-16 -12 -61 -50 -99 -84 -59 -54 -65 -63 -45 -63 31 0 77
35 136 105 52 61 55 77 8 42z"/>
<path d="M4217 129 c-69 -27 -85 -46 -79 -91 l4 -38 119 0 119 0 -26 51 c-26
51 -66 100 -81 98 -4 -1 -30 -10 -56 -20z"/>
<path d="M3573 70 c-3 -17 -10 -33 -14 -36 -5 -3 -9 -12 -9 -20 0 -11 20 -14
104 -14 87 0 105 3 110 16 4 9 4 19 1 22 -3 3 -5 0 -5 -6 0 -8 -8 -8 -30 -1
-16 6 -30 17 -30 25 0 8 -10 14 -26 14 -14 0 -32 7 -40 15 -26 26 -54 19 -61
-15z"/>
<path d="M274 44 c-18 -14 -18 -15 4 -4 12 6 22 13 22 15 0 8 -5 6 -26 -11z"/>
<path d="M4446 38 c-3 -13 -6 -26 -6 -29 0 -4 23 -7 51 -8 51 -1 52 0 34 19
-10 11 -24 20 -32 20 -7 0 -13 5 -13 10 0 20 -28 9 -34 -12z"/>
<path d="M7350 41 c0 -15 30 -41 47 -41 13 0 12 5 -7 25 -24 26 -40 32 -40 16z"/>
<path d="M215 10 c-3 -5 -1 -10 4 -10 6 0 11 5 11 10 0 6 -2 10 -4 10 -3 0 -8
-4 -11 -10z"/>
</g>
</svg>
